<?xml version="1.0" encoding="UTF-8"?>
<!DOCTYPE svg PUBLIC "-//W3C//DTD SVG 1.1//EN" "http://www.w3.org/Graphics/SVG/1.1/DTD/svg11.dtd">
<svg xmlns="http://www.w3.org/2000/svg" version="1.1" width="512px" height="512px" style="shape-rendering:geometricPrecision; text-rendering:geometricPrecision; image-rendering:optimizeQuality; fill-rule:evenodd; clip-rule:evenodd" xmlns:xlink="http://www.w3.org/1999/xlink">
<g><path style="opacity:0.991" fill="#615d5e" d="M 438.5,98.5 C 434.81,101.199 431.143,103.865 427.5,106.5C 423.5,108.5 419.5,110.5 415.5,112.5C 386.578,122.641 361.412,116.974 340,95.5C 335.496,89.4911 332.329,82.8244 330.5,75.5C 318.094,70.9782 306.094,71.9782 294.5,78.5C 290.492,108.678 273.492,126.845 243.5,133C 224.894,136.512 207.561,133.345 191.5,123.5C 181.537,116.518 174.537,107.184 170.5,95.5C 150.804,104.174 131.137,112.84 111.5,121.5C 106.489,123.339 101.822,125.672 97.5,128.5C 85.7512,131.25 78.7512,138.583 76.5,150.5C 72.3656,151.485 68.0323,151.818 63.5,151.5C 65.3753,140.024 70.7086,130.524 79.5,123C 87.4044,119.213 95.4044,115.713 103.5,112.5C 109.136,110.678 114.469,108.345 119.5,105.5C 135.928,98.7878 152.261,91.7878 168.5,84.5C 170.486,64.8483 179.82,49.8483 196.5,39.5C 210.612,31.032 225.946,27.6986 242.5,29.5C 259.217,31.4413 273.05,38.7746 284,51.5C 287.571,55.9754 290.071,60.9754 291.5,66.5C 303.761,61.6205 316.427,60.2871 329.5,62.5C 330.952,50.9323 335.619,40.9323 343.5,32.5C 346.859,29.4715 350.192,26.4715 353.5,23.5C 375.375,10.1443 398.375,7.97763 422.5,17C 449.821,30.1435 459.321,51.3102 451,80.5C 448.043,87.4392 443.876,93.4392 438.5,98.5 Z"/></g>
<g><path style="opacity:0.967" fill="#b68e98" d="M 353.5,23.5 C 350.192,26.4715 346.859,29.4715 343.5,32.5C 333.321,28.5694 322.655,26.4027 311.5,26C 288.232,24.8186 265.232,25.9853 242.5,29.5C 225.946,27.6986 210.612,31.032 196.5,39.5C 165.351,49.7524 140.851,69.0857 123,97.5C 121.546,100.071 120.38,102.738 119.5,105.5C 114.469,108.345 109.136,110.678 103.5,112.5C 119.734,72.4335 148.067,44.6001 188.5,29C 215.566,20.8948 243.233,16.2281 271.5,15C 286.833,14.3333 302.167,14.3333 317.5,15C 330.056,16.0069 342.056,18.8402 353.5,23.5 Z"/></g>
<g><path style="opacity:1" fill="#92f5f7" d="M 404.5,24.5 C 398.565,34.0057 396.399,44.339 398,55.5C 399.302,59.2743 401.469,62.441 404.5,65C 412.603,67.3035 420.603,69.9702 428.5,73C 433.063,75.9589 435.063,80.1256 434.5,85.5C 421.828,99.8272 405.828,106.494 386.5,105.5C 390.082,99.2887 391.249,92.622 390,85.5C 387.894,80.8526 384.394,77.686 379.5,76C 372.207,74.5755 365.207,72.2422 358.5,69C 354.058,64.2508 352.058,58.5842 352.5,52C 352.634,46.6375 353.634,41.4708 355.5,36.5C 370.095,24.7672 386.428,20.7672 404.5,24.5 Z"/></g>
<g><path style="opacity:1" fill="#65e0e8" d="M 404.5,24.5 C 421.249,26.7508 433.415,35.4174 441,50.5C 444.708,63.4149 442.541,75.0815 434.5,85.5C 435.063,80.1256 433.063,75.9589 428.5,73C 420.603,69.9702 412.603,67.3035 404.5,65C 401.469,62.441 399.302,59.2743 398,55.5C 396.399,44.339 398.565,34.0057 404.5,24.5 Z"/></g>
<g><path style="opacity:1" fill="#d3aeb6" d="M 343.5,32.5 C 335.619,40.9323 330.952,50.9323 329.5,62.5C 316.427,60.2871 303.761,61.6205 291.5,66.5C 290.071,60.9754 287.571,55.9754 284,51.5C 273.05,38.7746 259.217,31.4413 242.5,29.5C 265.232,25.9853 288.232,24.8186 311.5,26C 322.655,26.4027 333.321,28.5694 343.5,32.5 Z"/></g>
<g><path style="opacity:1" fill="#65dfe7" d="M 355.5,36.5 C 353.634,41.4708 352.634,46.6375 352.5,52C 352.058,58.5842 354.058,64.2508 358.5,69C 365.207,72.2422 372.207,74.5755 379.5,76C 384.394,77.686 387.894,80.8526 390,85.5C 391.249,92.622 390.082,99.2887 386.5,105.5C 367.903,105.124 353.737,97.1237 344,81.5C 337.034,63.6972 340.867,48.6972 355.5,36.5 Z"/></g>
<g><path style="opacity:1" fill="#92f5f7" d="M 241.5,40.5 C 241.804,41.1499 242.137,41.8165 242.5,42.5C 234.825,53.9484 233.658,65.9484 239,78.5C 243.232,83.6925 248.732,86.1925 255.5,86C 263.445,87.3741 269.278,91.5407 273,98.5C 273.494,100.134 273.66,101.801 273.5,103.5C 263.835,114.833 251.502,121.167 236.5,122.5C 232.833,122.5 229.167,122.5 225.5,122.5C 227.205,117.841 228.205,113.007 228.5,108C 227.997,100.811 224.33,95.811 217.5,93C 192.561,90.5511 184.895,77.7178 194.5,54.5C 208.025,42.9945 223.692,38.3279 241.5,40.5 Z"/></g>
<g><path style="opacity:1" fill="#d2aeb6" d="M 196.5,39.5 C 179.82,49.8483 170.486,64.8483 168.5,84.5C 152.261,91.7878 135.928,98.7878 119.5,105.5C 120.38,102.738 121.546,100.071 123,97.5C 140.851,69.0857 165.351,49.7524 196.5,39.5 Z"/></g>
<g><path style="opacity:1" fill="#65e0e8" d="M 241.5,40.5 C 261.301,42.8221 274.801,53.1554 282,71.5C 284.323,83.6744 281.49,94.341 273.5,103.5C 273.66,101.801 273.494,100.134 273,98.5C 269.278,91.5407 263.445,87.3741 255.5,86C 248.732,86.1925 243.232,83.6925 239,78.5C 233.658,65.9484 234.825,53.9484 242.5,42.5C 242.137,41.8165 241.804,41.1499 241.5,40.5 Z"/></g>
<g><path style="opacity:1" fill="#65dfe7" d="M 194.5,54.5 C 184.895,77.7178 192.561,90.5511 217.5,93C 224.33,95.811 227.997,100.811 228.5,108C 228.205,113.007 227.205,117.841 225.5,122.5C 229.167,122.5 232.833,122.5 236.5,122.5C 215.982,125.378 199.149,118.712 186,102.5C 176.386,84.2082 179.219,68.2082 194.5,54.5 Z"/></g>
<g><path style="opacity:1" fill="#f9e9bf" d="M 415.5,112.5 C 420.128,120.762 423.962,129.428 427,138.5C 430.227,157.809 430.227,177.142 427,196.5C 421.077,218.759 407.577,234.593 386.5,244C 338.459,258.926 289.459,263.26 239.5,257C 208.569,248.348 190.069,228.182 184,196.5C 177.2,171.071 179.7,146.738 191.5,123.5C 207.561,133.345 224.894,136.512 243.5,133C 273.492,126.845 290.492,108.678 294.5,78.5C 306.094,71.9782 318.094,70.9782 330.5,75.5C 332.329,82.8244 335.496,89.4911 340,95.5C 361.412,116.974 386.578,122.641 415.5,112.5 Z"/></g>
<g><path style="opacity:1" fill="#d3aeb6" d="M 191.5,123.5 C 179.7,146.738 177.2,171.071 184,196.5C 190.069,228.182 208.569,248.348 239.5,257C 289.459,263.26 338.459,258.926 386.5,244C 407.577,234.593 421.077,218.759 427,196.5C 430.227,177.142 430.227,157.809 427,138.5C 423.962,129.428 420.128,120.762 415.5,112.5C 419.5,110.5 423.5,108.5 427.5,106.5C 428.376,106.369 429.043,106.702 429.5,107.5C 435.348,119.891 439.182,132.891 441,146.5C 442.277,169.289 441.277,191.956 438,214.5C 430.68,247.321 411.514,270.154 380.5,283C 367.624,286.849 354.791,290.682 342,294.5C 339.271,299.606 340.771,302.606 346.5,303.5C 352.35,302.246 358.183,300.913 364,299.5C 365.107,299.585 366.107,299.919 367,300.5C 373.585,314.59 379.585,328.923 385,343.5C 387.164,348.662 390.498,349.662 395,346.5C 398.593,334.137 405.093,323.637 414.5,315C 426.019,306.614 438.352,305.281 451.5,311C 457.053,315.618 458.886,321.451 457,328.5C 452.605,334.117 446.772,337.284 439.5,338C 435.584,343.724 432.417,349.89 430,356.5C 425.599,364.799 420.099,372.299 413.5,379C 399.671,390.792 385.338,391.458 370.5,381C 367.426,378.151 364.426,375.317 361.5,372.5C 363.93,357.015 357.597,347.349 342.5,343.5C 341.409,339.485 339.409,335.985 336.5,333C 331.821,332.509 329.488,334.675 329.5,339.5C 325.528,338.892 321.528,338.392 317.5,338C 293.169,337.5 268.836,337.333 244.5,337.5C 246.638,329.807 243.971,326.974 236.5,329C 233.785,335.563 231.952,342.396 231,349.5C 230.754,372.177 231.254,394.843 232.5,417.5C 233.858,430.702 231.358,443.035 225,454.5C 210.105,464.496 197.771,461.829 188,446.5C 178.923,425.747 175.923,404.08 179,381.5C 181.716,357.352 189.216,334.852 201.5,314C 215.488,314.399 229.488,314.399 243.5,314C 246.343,310.381 246.01,307.048 242.5,304C 224.062,304.065 205.729,302.732 187.5,300C 164.639,294.91 145.972,283.243 131.5,265C 128.833,263 126.167,263 123.5,265C 106.974,284.512 85.9742,292.179 60.5,288C 22.7276,275.86 6.56089,250.027 12,210.5C 21.4034,180.93 41.5701,164.93 72.5,162.5C 81.2492,162.392 89.7492,163.726 98,166.5C 100.305,166.516 101.972,165.516 103,163.5C 103.848,149.047 106.681,135.047 111.5,121.5C 131.137,112.84 150.804,104.174 170.5,95.5C 174.537,107.184 181.537,116.518 191.5,123.5 Z"/></g>
<g><path style="opacity:0.976" fill="#b78e98" d="M 438.5,98.5 C 440.488,103.145 442.488,107.812 444.5,112.5C 480.839,118.845 503.173,139.845 511.5,175.5C 511.5,183.833 511.5,192.167 511.5,200.5C 503.907,234.592 482.907,255.092 448.5,262C 441.5,262.333 434.5,262.667 427.5,263C 414.104,279.05 397.437,290.383 377.5,297C 382.402,306.639 386.902,316.472 391,326.5C 400.614,307.28 416.114,296.947 437.5,295.5C 451.835,295.405 462.001,301.738 468,314.5C 471.783,332.578 464.616,343.911 446.5,348.5C 440.277,364.449 430.944,378.283 418.5,390C 406.574,399.146 393.241,401.979 378.5,398.5C 372.858,395.207 367.192,391.873 361.5,388.5C 361.5,383.167 361.5,377.833 361.5,372.5C 364.426,375.317 367.426,378.151 370.5,381C 385.338,391.458 399.671,390.792 413.5,379C 420.099,372.299 425.599,364.799 430,356.5C 432.417,349.89 435.584,343.724 439.5,338C 446.772,337.284 452.605,334.117 457,328.5C 458.886,321.451 457.053,315.618 451.5,311C 438.352,305.281 426.019,306.614 414.5,315C 405.093,323.637 398.593,334.137 395,346.5C 390.498,349.662 387.164,348.662 385,343.5C 379.585,328.923 373.585,314.59 367,300.5C 366.107,299.919 365.107,299.585 364,299.5C 358.183,300.913 352.35,302.246 346.5,303.5C 340.771,302.606 339.271,299.606 342,294.5C 354.791,290.682 367.624,286.849 380.5,283C 411.514,270.154 430.68,247.321 438,214.5C 441.277,191.956 442.277,169.289 441,146.5C 439.182,132.891 435.348,119.891 429.5,107.5C 429.043,106.702 428.376,106.369 427.5,106.5C 431.143,103.865 434.81,101.199 438.5,98.5 Z"/></g>
<g><path style="opacity:0.982" fill="#b78e98" d="M 111.5,121.5 C 106.681,135.047 103.848,149.047 103,163.5C 101.972,165.516 100.305,166.516 98,166.5C 89.7492,163.726 81.2492,162.392 72.5,162.5C 41.5701,164.93 21.4034,180.93 12,210.5C 6.56089,250.027 22.7276,275.86 60.5,288C 85.9742,292.179 106.974,284.512 123.5,265C 126.167,263 128.833,263 131.5,265C 145.972,283.243 164.639,294.91 187.5,300C 205.729,302.732 224.062,304.065 242.5,304C 246.01,307.048 246.343,310.381 243.5,314C 229.488,314.399 215.488,314.399 201.5,314C 189.216,334.852 181.716,357.352 179,381.5C 175.923,404.08 178.923,425.747 188,446.5C 197.771,461.829 210.105,464.496 225,454.5C 231.358,443.035 233.858,430.702 232.5,417.5C 231.254,394.843 230.754,372.177 231,349.5C 231.952,342.396 233.785,335.563 236.5,329C 243.971,326.974 246.638,329.807 244.5,337.5C 243.358,341.071 242.691,344.738 242.5,348.5C 241.957,354.646 241.624,360.812 241.5,367C 243.153,388.809 243.653,410.643 243,432.5C 242.509,444.314 238.676,454.814 231.5,464C 205.769,477.867 186.936,471.367 175,444.5C 167.972,424.428 165.638,403.762 168,382.5C 168.956,371.219 171.123,360.219 174.5,349.5C 175.5,345.5 176.5,341.5 177.5,337.5C 180.442,328.508 184.442,320.008 189.5,312C 164.844,307.758 144.011,296.592 127,278.5C 104.064,299.89 77.5635,305.723 47.5,296C 21.4295,285.108 5.42947,265.941 -0.5,238.5C -0.5,229.833 -0.5,221.167 -0.5,212.5C 7.77836,178.557 29.1117,158.223 63.5,151.5C 68.0323,151.818 72.3656,151.485 76.5,150.5C 81.1835,151.002 85.8502,151.669 90.5,152.5C 91.1667,152.167 91.8333,151.833 92.5,151.5C 93.7877,143.726 95.4544,136.059 97.5,128.5C 101.822,125.672 106.489,123.339 111.5,121.5 Z"/></g>
<g><path style="opacity:1" fill="#d3aeb6" d="M 447.5,125.5 C 474.127,131.292 491.293,147.292 499,173.5C 503.953,206.427 491.787,230.594 462.5,246C 453.819,249.881 444.819,251.381 435.5,250.5C 445.644,233.267 451.144,214.601 452,194.5C 452.667,178.833 452.667,163.167 452,147.5C 451.326,139.96 449.826,132.627 447.5,125.5 Z"/></g>
<g><path style="opacity:1" fill="#635f5f" d="M 418.5,139.5 C 424.326,139.157 426.826,141.824 426,147.5C 415.694,159.376 402.861,163.21 387.5,159C 381.498,157.361 377.165,153.861 374.5,148.5C 375.643,143.747 378.643,142.247 383.5,144C 393.222,150.978 403.222,151.312 413.5,145C 415.373,143.296 417.04,141.463 418.5,139.5 Z"/></g>
<g><path style="opacity:1" fill="#625e5e" d="M 265.5,152.5 C 272.241,152.39 274.408,155.39 272,161.5C 258.472,174.92 243.306,177.087 226.5,168C 222.443,166.053 220.943,162.886 222,158.5C 224.497,156.522 227.331,156.022 230.5,157C 236.916,162.234 244.249,163.901 252.5,162C 257.611,159.789 261.944,156.623 265.5,152.5 Z"/></g>
<g><path style="opacity:1" fill="#625d5e" d="M 329.5,152.5 C 338.552,152.193 347.552,152.693 356.5,154C 374.148,158.468 378.982,168.968 371,185.5C 364.07,194.076 355.237,199.909 344.5,203C 325.094,208.924 306.427,207.257 288.5,198C 271.283,179.725 274.616,166.391 298.5,158C 308.9,155.761 319.233,153.927 329.5,152.5 Z"/></g>
<g><path style="opacity:1" fill="#fa7fa4" d="M 306.5,176.5 C 316.55,176.169 326.55,176.669 336.5,178C 342.741,179.452 348.075,182.452 352.5,187C 339.494,194.48 325.494,197.147 310.5,195C 301.774,193.81 294.774,189.81 289.5,183C 294.986,180.12 300.653,177.953 306.5,176.5 Z"/></g>
<g><path style="opacity:1" fill="#b78e98" d="M 65.5,201.5 C 88.1862,199.687 98.6862,210.02 97,232.5C 92.0987,246.382 82.2654,252.549 67.5,251C 50.6229,244.745 44.7896,232.912 50,215.5C 53.471,208.865 58.6376,204.198 65.5,201.5 Z"/></g>
<g><path style="opacity:1" fill="#ba8f97" d="M 342.5,343.5 C 338.213,342.012 333.88,340.678 329.5,339.5C 329.488,334.675 331.821,332.509 336.5,333C 339.409,335.985 341.409,339.485 342.5,343.5 Z"/></g>
<g><path style="opacity:0.991" fill="#fe9d6f" d="M 177.5,337.5 C 176.5,341.5 175.5,345.5 174.5,349.5C 163.068,349.365 152.401,352.198 142.5,358C 141.874,358.75 141.374,359.584 141,360.5C 140.333,401.833 140.333,443.167 141,484.5C 142.214,486.049 143.714,487.215 145.5,488C 184.499,488.5 223.499,488.667 262.5,488.5C 261.349,444.862 261.183,401.196 262,357.5C 263.4,354.098 265.567,351.264 268.5,349C 259.84,348.5 251.173,348.334 242.5,348.5C 242.691,344.738 243.358,341.071 244.5,337.5C 268.836,337.333 293.169,337.5 317.5,338C 321.528,338.392 325.528,338.892 329.5,339.5C 333.88,340.678 338.213,342.012 342.5,343.5C 357.597,347.349 363.93,357.015 361.5,372.5C 361.5,377.833 361.5,383.167 361.5,388.5C 361.17,404.675 361.504,420.675 362.5,436.5C 362.91,453.542 362.41,470.542 361,487.5C 354.894,499.203 345.728,502.369 333.5,497C 329.418,494.095 326.751,490.262 325.5,485.5C 325.5,481.5 325.5,477.5 325.5,473.5C 325.5,440.833 325.5,408.167 325.5,375.5C 320.052,374.508 314.552,373.841 309,373.5C 305.158,373.407 301.491,374.074 298,375.5C 297.5,408.165 297.333,440.832 297.5,473.5C 297.317,477.749 297.317,481.749 297.5,485.5C 295.389,492.111 291.056,496.611 284.5,499C 237.167,499.667 189.833,499.667 142.5,499C 135.333,497.167 130.833,492.667 129,485.5C 128.333,443.5 128.333,401.5 129,359.5C 131.474,351.693 136.641,346.526 144.5,344C 155.093,339.715 166.093,337.548 177.5,337.5 Z"/></g>
<g><path style="opacity:1" fill="#febe8b" d="M 242.5,348.5 C 251.173,348.334 259.84,348.5 268.5,349C 265.567,351.264 263.4,354.098 262,357.5C 261.183,401.196 261.349,444.862 262.5,488.5C 223.499,488.667 184.499,488.5 145.5,488C 143.714,487.215 142.214,486.049 141,484.5C 140.333,443.167 140.333,401.833 141,360.5C 141.374,359.584 141.874,358.75 142.5,358C 152.401,352.198 163.068,349.365 174.5,349.5C 171.123,360.219 168.956,371.219 168,382.5C 165.638,403.762 167.972,424.428 175,444.5C 186.936,471.367 205.769,477.867 231.5,464C 238.676,454.814 242.509,444.314 243,432.5C 243.653,410.643 243.153,388.809 241.5,367C 241.624,360.812 241.957,354.646 242.5,348.5 Z"/></g>
<g><path style="opacity:1" fill="#ffbe8b" d="M 304.5,348.5 C 319.214,347.846 333.214,350.679 346.5,357C 347.667,358.167 348.833,359.333 350,360.5C 350.667,401.5 350.667,442.5 350,483.5C 345.667,490.167 341.333,490.167 337,483.5C 336.667,445.5 336.333,407.5 336,369.5C 334.28,366.905 331.78,365.405 328.5,365C 316.804,361.788 305.138,361.788 293.5,365C 290.966,365.516 288.8,366.683 287,368.5C 286.667,406.833 286.333,445.167 286,483.5C 282.011,488.356 277.678,488.689 273,484.5C 272.333,443.167 272.333,401.833 273,360.5C 275.483,357.495 278.65,355.328 282.5,354C 289.738,351.19 297.072,349.357 304.5,348.5 Z"/></g>
<g><path style="opacity:1" fill="#fefefe" d="M 325.5,473.5 C 316.167,472.167 306.833,472.167 297.5,473.5C 297.333,440.832 297.5,408.165 298,375.5C 301.491,374.074 305.158,373.407 309,373.5C 314.552,373.841 320.052,374.508 325.5,375.5C 325.5,408.167 325.5,440.833 325.5,473.5 Z"/></g>
<g><path style="opacity:0.979" fill="#d3aeb6" d="M 361.5,388.5 C 367.192,391.873 372.858,395.207 378.5,398.5C 376.079,412.441 370.745,425.108 362.5,436.5C 361.504,420.675 361.17,404.675 361.5,388.5 Z"/></g>
<g><path style="opacity:0.968" fill="#e3e3e2" d="M 325.5,473.5 C 325.5,477.5 325.5,481.5 325.5,485.5C 316.16,482.893 306.826,482.893 297.5,485.5C 297.317,481.749 297.317,477.749 297.5,473.5C 306.833,472.167 316.167,472.167 325.5,473.5 Z"/></g>
</svg>
